<svg width="22" height="28" viewBox="0 0 22 28" fill="none" xmlns="http://www.w3.org/2000/svg">
<path d="M7.86634 18.5L10.9997 15.4666L14.133 18.5L15.633 17L12.533 13.9666L15.633 10.9L14.133 9.39997L10.9997 12.4333L7.86634 9.39997L6.36634 10.9L9.46634 13.9666L6.36634 17L7.86634 18.5ZM10.9997 27.3C7.88856 26.5222 5.33301 24.7166 3.33301 21.8833C1.33301 19.05 0.333008 15.9444 0.333008 12.5666V4.6333L10.9997 0.633301L21.6663 4.6333V12.5666C21.6663 15.9444 20.6663 19.05 18.6663 21.8833C16.6663 24.7166 14.1108 26.5222 10.9997 27.3ZM10.9997 25.2333C13.5552 24.3889 15.6386 22.7944 17.2497 20.45C18.8608 18.1055 19.6663 15.4777 19.6663 12.5666V6.0333L10.9997 2.76663L2.33301 6.0333V12.5666C2.33301 15.4777 3.13856 18.1055 4.74967 20.45C6.36079 22.7944 8.44412 24.3889 10.9997 25.2333Z" fill="rgba(255, 60, 95, 0.8)"/>
</svg>
