<svg width="22" height="29" viewBox="0 0 22 29" fill="none" xmlns="http://www.w3.org/2000/svg">
<path d="M10.9997 28.6667L1.13301 21.2667C0.883008 21.0834 0.687174 20.8501 0.545508 20.5667C0.403841 20.2834 0.333008 19.9834 0.333008 19.6667V2.66675C0.333008 2.13341 0.533008 1.66675 0.933008 1.26675C1.33301 0.866748 1.79967 0.666748 2.33301 0.666748H19.6663C20.1997 0.666748 20.6663 0.866748 21.0663 1.26675C21.4663 1.66675 21.6663 2.13341 21.6663 2.66675V19.6667C21.6663 19.9834 21.5955 20.2834 21.4538 20.5667C21.3122 20.8501 21.1163 21.0834 20.8663 21.2667L10.9997 28.6667ZM10.9997 26.1667L19.6663 19.5001V2.66675H2.33301V19.5001L10.9997 26.1667ZM9.59968 18.0001L17.133 10.4667L15.6997 9.06675L9.56634 15.2001L6.26634 11.9001L4.86634 13.3001L9.59968 18.0001ZM10.9997 2.66675H2.33301H19.6663H10.9997Z" fill="#5BC044"/>
</svg>
