<svg width="47" height="42" viewBox="0 0 47 42" fill="none" xmlns="http://www.w3.org/2000/svg">
<g id="_8qBZgb">
<path id="Vector" d="M0.150585 15.3613C0.150585 14.402 0.162502 13.4427 0.148599 12.4834C0.138669 11.7724 0.486238 11.4586 1.17542 11.4606C2.14265 11.4606 3.10393 11.5758 3.99371 11.9372C4.64316 12.2014 4.88547 12.0048 5.19133 11.4328C8.17049 5.88159 12.7187 2.29667 18.8558 0.854754C27.9422 -1.28031 37.3147 3.03351 41.7238 11.3335C42.0992 12.0385 42.4249 12.1875 43.1439 11.8916C43.9701 11.5519 44.8698 11.4645 45.7695 11.4645C46.4408 11.4645 46.8301 11.7366 46.8281 12.4596C46.8222 14.3444 46.8122 16.2312 46.8361 18.116C46.848 18.9899 46.1389 19.3514 45.6603 19.8578C44.56 21.0237 44.4984 21.0515 45.6742 22.0982C46.562 22.8886 46.9334 23.7586 46.8519 24.9522C46.7546 26.3683 46.8341 27.7943 46.8281 29.2184C46.8241 30.3743 46.5858 30.5868 45.4041 30.553C44.5699 30.5292 43.7338 30.4021 42.985 30.0863C42.3057 29.8003 42.0833 30.0267 41.7874 30.5749C38.6215 36.424 33.7834 40.0407 27.2471 41.3158C18.4983 43.0238 9.53098 38.7259 5.29063 30.7914C4.89143 30.0446 4.5657 29.7785 3.72757 30.1419C2.94504 30.4815 2.06321 30.5411 1.19925 30.557C0.510071 30.5709 0.148599 30.2551 0.148599 29.5501C0.150585 27.6315 0.152571 25.7129 0.148599 23.7943C0.148599 22.9701 0.835793 22.6285 1.30451 22.1498C2.42269 21.0118 2.53789 20.9045 1.28664 19.9154C-0.121512 18.8012 0.16846 17.3752 0.150585 15.9571C0.148599 15.7585 0.150585 15.5599 0.150585 15.3613ZM29.7237 15.6751C29.2074 15.6751 28.7108 15.6711 28.2143 15.6751C26.0772 15.7009 24.7247 16.9065 24.3533 19.0197C24.1726 20.0545 24.4288 21.0574 24.4248 22.0783C24.4069 26.1598 21.4476 28.702 17.398 28.0863C16.3493 27.9274 15.2867 27.8738 14.2718 28.2948C13.3721 28.6682 13.2808 29.0337 13.964 29.7328C16.4724 32.2949 19.5032 33.7844 23.108 33.8579C26.9273 33.9374 30.1547 32.561 32.8419 29.7765C36.3852 26.1081 37.3961 19.9413 35.0644 15.4149C34.8479 14.9939 34.6533 14.8012 34.1548 15.0395C32.7446 15.7188 31.2411 15.8459 29.7218 15.6731L29.7237 15.6751ZM22.5738 20.8549C22.5738 20.5252 22.6055 20.1895 22.5698 19.8638C22.1765 16.3186 25.3344 13.5301 28.5897 13.8658C29.2769 13.9373 29.976 13.9075 30.6711 13.9094C31.3643 13.9114 32.0574 13.9412 32.7228 13.6652C33.3484 13.405 33.5847 13.0634 33.0644 12.4834C32.405 11.7466 31.7516 11.0058 30.9234 10.4417C23.6284 5.47444 14.0394 8.63235 11.1993 17.0098C10.093 20.271 10.385 23.5262 11.8726 26.6503C12.0355 26.9919 12.1745 27.4785 12.7207 27.0952C14.4387 25.8916 16.3692 26.128 18.2699 26.3147C20.0415 26.4875 21.7138 25.5361 22.3871 23.8916C22.7962 22.8926 22.5241 21.8638 22.5777 20.8529L22.5738 20.8549ZM37.4974 25.5977C35.0843 31.5759 30.8558 35.2343 24.4625 35.6077C17.1219 36.0367 12.242 32.279 9.41975 25.5778C8.78221 26.6464 8.12283 27.6275 7.16155 28.2789C6.3393 28.837 6.47634 29.3216 6.87356 30.0466C10.8339 37.2998 19.0027 41.1489 27.1855 39.4985C33.0544 38.3147 37.3583 34.9642 40.2064 29.7228C40.3574 29.4448 40.7804 29.0813 40.3534 28.7635C39.2094 27.9095 38.3137 26.835 37.4974 25.5957V25.5977ZM37.5113 16.3782C38.2084 15.3514 38.8678 14.3384 39.8469 13.6771C40.6036 13.1686 40.5024 12.7396 40.131 12.0644C35.9701 4.50125 27.6244 0.660115 19.1974 2.61643C13.5687 3.92329 9.42571 7.27783 6.69481 12.3662C6.5399 12.6542 6.20822 12.9819 6.67098 13.3096C7.80505 14.112 8.66305 15.1766 9.41777 16.4338C12.0633 10.1041 16.5638 6.40394 23.394 6.36819C30.3037 6.33244 34.8598 10.0385 37.5113 16.3802V16.3782ZM45.0108 16.1101C45.0108 15.5122 45.0108 15.1825 45.0108 14.8509C45.0128 13.2798 44.8817 13.1885 43.3624 13.7069C40.3713 14.7257 38.3931 17.6175 38.266 20.8191C38.1309 24.2313 40.3077 27.2223 43.4835 28.3226C44.836 28.7914 45.1042 28.7556 45.0148 27.2561C45.0009 27.0257 44.981 26.7874 45.0188 26.5629C45.2988 24.8092 44.6851 23.4944 43.3067 22.3504C41.9681 21.2402 42.0257 20.8588 43.3087 19.6493C44.417 18.6026 45.5292 17.6016 45.0088 16.112L45.0108 16.1101ZM1.90829 26.265C1.90829 26.6622 1.90829 27.0595 1.90829 27.4567C1.91226 28.7854 1.96589 28.8251 3.25289 28.4438C6.31944 27.5381 8.60545 24.7079 8.7564 21.6314C8.93117 18.0664 7.06224 15.0336 3.89241 13.7406C2.00958 12.972 1.91028 13.0395 1.91028 15.0753C1.91028 15.1408 1.92021 15.2084 1.91028 15.2739C1.61038 17.1567 2.1923 18.6165 3.72955 19.832C4.9232 20.7754 4.84773 21.1627 3.73551 22.2154C2.56569 23.3236 1.3065 24.3663 1.90631 26.263L1.90829 26.265Z" fill="#2B2427"/>
<path id="Vector_2" d="M29.7236 15.6751C31.243 15.8459 32.7465 15.7207 34.1566 15.0415C34.6531 14.8012 34.8497 14.9958 35.0662 15.4169C37.3979 19.9432 36.387 26.1101 32.8438 29.7784C30.1546 32.5629 26.9272 33.9393 23.1099 33.8599C19.5051 33.7844 16.4743 32.2948 13.9658 29.7347C13.2806 29.0356 13.374 28.6702 14.2737 28.2968C15.2886 27.8757 16.3511 27.9274 17.3998 28.0882C21.4495 28.7059 24.4108 26.1617 24.4267 22.0803C24.4306 21.0594 24.1744 20.0564 24.3552 19.0217C24.7266 16.9084 26.0771 15.7029 28.2161 15.6771C28.7127 15.6711 29.2092 15.6771 29.7256 15.6771L29.7236 15.6751Z" fill="#FF2D61"/>
<path id="Vector_3" d="M22.5741 20.8549C22.5205 21.8678 22.7926 22.8946 22.3835 23.8936C21.7122 25.5361 20.0379 26.4895 18.2663 26.3167C16.3656 26.13 14.4351 25.8956 12.7171 27.0972C12.1709 27.4805 12.0319 26.9939 11.869 26.6523C10.3834 23.5282 10.0914 20.273 11.1957 17.0118C14.0378 8.63435 23.6248 5.47843 30.9198 10.4437C31.748 11.0078 32.4014 11.7486 33.0608 12.4854C33.5792 13.0654 33.3448 13.407 32.7192 13.6672C32.0538 13.9432 31.3607 13.9134 30.6675 13.9114C29.9744 13.9095 29.2753 13.9373 28.5861 13.8677C25.3328 13.5321 22.1729 16.3206 22.5662 19.8658C22.6019 20.1915 22.5702 20.5272 22.5702 20.8569L22.5741 20.8549Z" fill="#FF2D61"/>
<path id="Vector_4" d="M37.4992 25.5976C38.3175 26.837 39.2112 27.9115 40.3552 28.7655C40.7802 29.0833 40.3592 29.4467 40.2082 29.7248C37.3602 34.9661 33.0543 38.3147 27.1873 39.5004C19.0026 41.1528 10.8357 37.3038 6.87538 30.0485C6.47816 29.3236 6.34112 28.839 7.16337 28.2809C8.12465 27.6294 8.78602 26.6463 9.42158 25.5798C12.2438 32.2829 17.1237 36.0386 24.4644 35.6096C30.8576 35.2362 35.0881 31.5778 37.4992 25.5996V25.5976Z" fill="#FEFEFE"/>
<path id="Vector_5" d="M37.5117 16.3802C34.8602 10.0385 30.3041 6.33246 23.3944 6.36821C16.5622 6.40396 12.0637 10.1041 9.41815 16.4338C8.66145 15.1766 7.80345 14.114 6.67137 13.3097C6.21059 12.982 6.54028 12.6542 6.6952 12.3663C9.4261 7.27785 13.5691 3.92331 19.1978 2.61645C27.6248 0.660134 35.9724 4.50127 40.1333 12.0664C40.5047 12.7436 40.606 13.1706 39.8493 13.6791C38.8682 14.3405 38.2088 15.3534 37.5136 16.3802H37.5117Z" fill="#FEFEFE"/>
<path id="Vector_6" d="M45.0109 16.112C45.5293 17.6016 44.4171 18.6026 43.3108 19.6493C42.0278 20.8588 41.9702 21.2402 43.3088 22.3504C44.6872 23.4944 45.3009 24.8092 45.0208 26.5629C44.9851 26.7894 45.005 27.0257 45.0169 27.2561C45.1043 28.7556 44.8381 28.7914 43.4856 28.3226C40.3098 27.2223 38.131 24.2313 38.2681 20.8191C38.3952 17.6175 40.3734 14.7257 43.3644 13.7069C44.8838 13.1885 45.0149 13.2799 45.0129 14.8509C45.0129 15.1825 45.0129 15.5122 45.0129 16.1101L45.0109 16.112Z" fill="#FF2D61"/>
<path id="Vector_7" d="M1.90816 26.265C1.30835 24.3682 2.56556 23.3255 3.73736 22.2173C4.84958 21.1646 4.92307 20.7774 3.7314 19.834C2.19416 18.6185 1.61024 17.1567 1.91213 15.2758C1.92206 15.2123 1.91213 15.1428 1.91213 15.0772C1.91213 13.0395 2.01143 12.9739 3.89426 13.7426C7.06409 15.0355 8.93104 18.0683 8.75824 21.6334C8.6073 24.7099 6.32129 27.5401 3.25474 28.4457C1.96774 28.8251 1.91213 28.7853 1.91014 27.4586C1.91014 27.0614 1.91014 26.6642 1.91014 26.267L1.90816 26.265Z" fill="#FF2D61"/>
</g>
</svg>
