<svg width="59" height="52" viewBox="0 0 59 52" fill="none" xmlns="http://www.w3.org/2000/svg">
<g id="_8qBZgb">
<path id="Vector" d="M0.016814 18.9131C0.016814 17.7075 0.031791 16.5018 0.0143178 15.2962C0.00183691 14.4025 0.438668 14.0081 1.30484 14.0106C2.52048 14.0106 3.72863 14.1554 4.84692 14.6097C5.66317 14.9417 5.9677 14.6946 6.35211 13.9757C10.0964 6.99888 15.8126 2.49328 23.5258 0.681054C34.9458 -2.00234 46.7253 3.41936 52.2668 13.8509C52.7386 14.737 53.1479 14.9242 54.0516 14.5523C55.09 14.1255 56.2207 14.0156 57.3515 14.0156C58.1952 14.0156 58.6845 14.3576 58.682 15.2662C58.6745 17.6351 58.662 20.0065 58.692 22.3753C58.7069 23.4736 57.8158 23.928 57.2142 24.5645C55.8313 26.0297 55.754 26.0647 57.2317 27.3802C58.3475 28.3736 58.8143 29.467 58.7119 30.9672C58.5896 32.7469 58.6895 34.5392 58.682 36.329C58.677 37.7817 58.3774 38.0488 56.8922 38.0064C55.8438 37.9764 54.7929 37.8167 53.8519 37.4198C52.9982 37.0603 52.7186 37.3449 52.3467 38.0338C48.3678 45.3851 42.2871 49.9306 34.0722 51.5332C23.0765 53.6799 11.8063 48.2782 6.47692 38.3059C5.97519 37.3674 5.56582 37.0329 4.51243 37.4897C3.52894 37.9165 2.42063 37.9914 1.3348 38.0114C0.468622 38.0289 0.0143178 37.632 0.0143178 36.7458C0.016814 34.3345 0.0193102 31.9232 0.0143178 29.5119C0.0143178 28.476 0.877995 28.0466 1.46709 27.4451C2.87244 26.0148 3.01722 25.88 1.44463 24.6369C-0.325162 23.2365 0.0392796 21.4443 0.016814 19.662C0.0143178 19.4124 0.016814 19.1628 0.016814 18.9131ZM37.1849 19.3075C36.5359 19.3075 35.9118 19.3025 35.2878 19.3075C32.6019 19.34 30.902 20.8552 30.4352 23.5111C30.2081 24.8116 30.5301 26.0722 30.5251 27.3552C30.5026 32.4848 26.7833 35.68 21.6936 34.9061C20.3756 34.7064 19.0402 34.639 17.7646 35.1682C16.6339 35.6375 16.519 36.0968 17.3777 36.9755C20.5304 40.1955 24.3396 42.0677 28.8701 42.16C33.6703 42.2599 37.7266 40.53 41.1039 37.0304C45.5571 32.4199 46.8276 24.6693 43.8971 18.9805C43.625 18.4513 43.3804 18.2092 42.7539 18.5088C40.9816 19.3624 39.092 19.5222 37.1824 19.305L37.1849 19.3075ZM28.1987 25.8176C28.1987 25.4032 28.2386 24.9813 28.1937 24.572C27.6994 20.1163 31.6683 16.6117 35.7596 17.0335C36.6233 17.1234 37.5019 17.0859 38.3756 17.0884C39.2467 17.0909 40.1179 17.1284 40.9541 16.7814C41.7404 16.4544 42.0375 16.0251 41.3835 15.2962C40.5547 14.3701 39.7335 13.439 38.6926 12.7301C29.5241 6.48716 17.4726 10.4561 13.903 20.985C12.5127 25.0837 12.8796 29.1749 14.7493 33.1014C14.9539 33.5307 15.1287 34.1423 15.8151 33.6605C17.9743 32.1479 20.4006 32.4449 22.7894 32.6796C25.016 32.8967 27.1178 31.701 27.964 29.6342C28.4782 28.3786 28.1363 27.0856 28.2036 25.8151L28.1987 25.8176ZM46.9549 31.7784C43.9221 39.2919 38.6077 43.8899 30.5725 44.3592C21.3467 44.8983 15.2135 40.1756 11.6665 31.7535C10.8652 33.0964 10.0365 34.3295 8.82832 35.1483C7.7949 35.8497 7.96714 36.4588 8.46637 37.3699C13.4438 46.4859 23.7105 51.3235 33.9948 49.2492C41.371 47.7615 46.7802 43.5504 50.3597 36.963C50.5494 36.6135 51.0811 36.1567 50.5444 35.7573C49.1066 34.684 47.9809 33.3335 46.9549 31.7759V31.7784ZM46.9724 20.1912C47.8486 18.9007 48.6773 17.6276 49.9079 16.7964C50.859 16.1574 50.7317 15.6182 50.2649 14.7695C45.0354 5.26403 34.5464 0.436429 23.9552 2.89516C16.881 4.53765 11.674 8.75369 8.24172 15.1489C8.04702 15.5108 7.63016 15.9227 8.21177 16.3346C9.63708 17.343 10.7154 18.681 11.664 20.2611C14.9889 12.3058 20.6452 7.65537 29.2296 7.61044C37.9138 7.56551 43.64 12.2234 46.9724 20.1937V20.1912ZM56.398 19.8542C56.398 19.1028 56.398 18.6885 56.398 18.2716C56.4005 16.2971 56.2357 16.1823 54.3261 16.8338C50.5669 18.1144 48.0807 21.7488 47.921 25.7726C47.7512 30.0611 50.487 33.8203 54.4784 35.2032C56.1783 35.7923 56.5153 35.7474 56.403 33.8627C56.3855 33.5732 56.3605 33.2736 56.408 32.9916C56.7599 30.7874 55.9886 29.135 54.2563 27.6972C52.5738 26.3018 52.6462 25.8226 54.2587 24.3024C55.6516 22.9869 57.0495 21.7288 56.3955 19.8567L56.398 19.8542ZM2.22593 32.6171C2.22593 33.1164 2.22593 33.6156 2.22593 34.1148C2.23092 35.7848 2.29832 35.8347 3.91584 35.3554C7.76994 34.2172 10.643 30.6601 10.8328 26.7936C11.0524 22.3129 8.70351 18.5013 4.71961 16.8763C2.35324 15.9102 2.22843 15.9951 2.22843 18.5537C2.22843 18.6361 2.24091 18.7209 2.22843 18.8033C1.8515 21.1697 2.58288 23.0044 4.51493 24.532C6.01513 25.7177 5.92027 26.2045 4.52241 27.5274C3.05217 28.9203 1.46959 30.2308 2.22343 32.6147L2.22593 32.6171Z" fill="#2B2427"/>
<path id="Vector_2" d="M37.1849 19.3075C39.0944 19.5222 40.9841 19.365 42.7563 18.5113C43.3804 18.2092 43.6275 18.4539 43.8996 18.983C46.8301 24.6718 45.5595 32.4225 41.1064 37.0329C37.7265 40.5325 33.6703 42.2624 28.8726 42.1625C24.342 42.0677 20.5329 40.1956 17.3802 36.978C16.519 36.0993 16.6363 35.64 17.7671 35.1707C19.0427 34.6416 20.3781 34.7065 21.6961 34.9087C26.7858 35.685 30.5076 32.4874 30.5276 27.3577C30.5326 26.0747 30.2106 24.8141 30.4377 23.5136C30.9045 20.8577 32.6019 19.3425 35.2903 19.31C35.9143 19.3026 36.5384 19.31 37.1874 19.31L37.1849 19.3075Z" fill="#FF2D61"/>
<path id="Vector_3" d="M28.1987 25.8176C28.1313 27.0906 28.4732 28.3811 27.959 29.6367C27.1153 31.7011 25.011 32.8992 22.7845 32.682C20.3956 32.4474 17.9693 32.1529 15.8101 33.663C15.1237 34.1448 14.949 33.5332 14.7443 33.1039C12.8771 29.1774 12.5102 25.0862 13.8981 20.9875C17.4701 10.4586 29.5191 6.49215 38.6876 12.7326C39.7285 13.4415 40.5497 14.3726 41.3785 15.2987C42.03 16.0276 41.7354 16.4569 40.9491 16.7839C40.1129 17.1309 39.2418 17.0934 38.3706 17.0909C37.4994 17.0884 36.6208 17.1234 35.7546 17.036C31.6659 16.6142 27.6944 20.1188 28.1887 24.5745C28.2336 24.9838 28.1937 25.4057 28.1937 25.8201L28.1987 25.8176Z" fill="#FF2D61"/>
<path id="Vector_4" d="M46.9574 31.7784C47.9859 33.3361 49.1091 34.6865 50.5469 35.7598C51.0811 36.1592 50.5519 36.616 50.3622 36.9655C46.7827 43.5529 41.371 47.7615 33.9973 49.2517C23.7105 51.3285 13.4463 46.4909 8.46888 37.3724C7.96964 36.4613 7.7974 35.8522 8.83082 35.1508C10.039 34.332 10.8702 33.0964 11.669 31.756C15.216 40.1806 21.3492 44.9009 30.575 44.3617C38.6102 43.8924 43.9271 39.2944 46.9574 31.7809V31.7784Z" fill="#FEFEFE"/>
<path id="Vector_5" d="M46.9724 20.1937C43.64 12.2234 37.9138 7.5655 29.2296 7.61043C20.6427 7.65536 14.9889 12.3057 11.664 20.2611C10.713 18.681 9.63461 17.3455 8.21179 16.3346C7.63267 15.9227 8.04704 15.5108 8.24174 15.1489C11.674 8.75368 16.881 4.53763 23.9552 2.89515C34.5465 0.436416 45.0379 5.26402 50.2674 14.772C50.7342 15.6232 50.8615 16.1598 49.9104 16.7989C48.6773 17.6301 47.8486 18.9031 46.9749 20.1937H46.9724Z" fill="#FEFEFE"/>
<path id="Vector_6" d="M56.398 19.8567C57.0495 21.7288 55.6516 22.9869 54.2613 24.3024C52.6487 25.8225 52.5763 26.3018 54.2588 27.6972C55.9911 29.135 56.7624 30.7874 56.4105 32.9916C56.3655 33.2761 56.3905 33.5732 56.4055 33.8627C56.5153 35.7473 56.1808 35.7923 54.4809 35.2032C50.4895 33.8203 47.7512 30.061 47.9235 25.7726C48.0832 21.7488 50.5694 18.1143 54.3286 16.8338C56.2382 16.1823 56.403 16.2971 56.4005 18.2716C56.4005 18.6885 56.4005 19.1028 56.4005 19.8542L56.398 19.8567Z" fill="#FF2D61"/>
<path id="Vector_7" d="M2.22585 32.6171C1.472 30.2333 3.05208 28.9228 4.52483 27.5299C5.92269 26.207 6.01505 25.7202 4.51734 24.5345C2.5853 23.0069 1.85142 21.1697 2.23084 18.8058C2.24332 18.7259 2.23084 18.6386 2.23084 18.5562C2.23084 15.9951 2.35565 15.9127 4.72203 16.8788C8.70592 18.5038 11.0523 22.3154 10.8352 26.7961C10.6455 30.6626 7.77235 34.2197 3.91826 35.358C2.30073 35.8347 2.23084 35.7848 2.22835 34.1173C2.22835 33.6181 2.22835 33.1189 2.22835 32.6196L2.22585 32.6171Z" fill="#FF2D61"/>
</g>
</svg>
