<svg width="59" height="53" viewBox="0 0 59 53" fill="none" xmlns="http://www.w3.org/2000/svg">
<g id="_8qBZgb">
<path id="Vector" d="M0.0168925 19.0015C0.0168925 17.7902 0.0319395 16.5789 0.0143847 15.3676C0.00184549 14.4698 0.440717 14.0736 1.31094 14.0761C2.53225 14.0761 3.74605 14.2215 4.86956 14.678C5.68962 15.0115 5.99558 14.7632 6.38178 14.041C10.1435 7.03157 15.8865 2.50493 23.6357 0.684236C35.1091 -2.01169 46.9436 3.43533 52.511 13.9156C52.9849 14.8059 53.3962 14.994 54.3041 14.6203C55.3473 14.1914 56.4834 14.0811 57.6194 14.0811C58.4671 14.0811 58.9586 14.4247 58.9561 15.3375C58.9486 17.7175 58.936 20.0999 58.9661 22.4799C58.9812 23.5833 58.0859 24.0397 57.4815 24.6792C56.0921 26.1513 56.0144 26.1864 57.499 27.5081C58.62 28.5062 59.089 29.6046 58.9862 31.1118C58.8633 32.8999 58.9636 34.7005 58.9561 36.4987C58.9511 37.9582 58.6501 38.2266 57.158 38.1839C56.1047 38.1538 55.0489 37.9933 54.1034 37.5946C53.2458 37.2335 52.9649 37.5194 52.5912 38.2115C48.5937 45.5971 42.4846 50.1639 34.2313 51.7739C23.1843 53.9306 11.8614 48.5037 6.50718 38.4849C6.0031 37.5419 5.59182 37.2059 4.53351 37.6648C3.54542 38.0937 2.43194 38.1689 1.34103 38.1889C0.470811 38.2065 0.0143847 37.8078 0.0143847 36.9175C0.0168925 34.4949 0.0194004 32.0723 0.0143847 29.6498C0.0143847 28.609 0.882097 28.1777 1.47395 27.5733C2.88586 26.1363 3.03131 26.0009 1.45138 24.752C-0.326681 23.3451 0.0394631 21.5444 0.0168925 19.7538C0.0143847 19.503 0.0168925 19.2523 0.0168925 19.0015ZM37.3586 19.3977C36.7066 19.3977 36.0796 19.3927 35.4526 19.3977C32.7542 19.4303 31.0464 20.9526 30.5774 23.6209C30.3492 24.9275 30.6727 26.194 30.6677 27.483C30.6451 32.6366 26.9084 35.8466 21.795 35.0692C20.4708 34.8686 19.1291 34.8009 17.8476 35.3325C16.7116 35.804 16.5962 36.2654 17.4589 37.1482C20.6263 40.3833 24.4533 42.2642 29.005 42.357C33.8276 42.4573 37.9028 40.7194 41.2959 37.2034C45.7699 32.5714 47.0464 24.7846 44.1022 19.0692C43.8288 18.5375 43.583 18.2943 42.9536 18.5952C41.173 19.4529 39.2746 19.6134 37.3561 19.3952L37.3586 19.3977ZM28.3304 25.9382C28.3304 25.5219 28.3705 25.098 28.3254 24.6868C27.8288 20.2103 31.8163 16.6893 35.9266 17.1131C36.7943 17.2034 37.6771 17.1657 38.5548 17.1683C39.4301 17.1708 40.3053 17.2084 41.1454 16.8598C41.9354 16.5313 42.2338 16.0999 41.5768 15.3676C40.7442 14.4372 39.9191 13.5018 38.8733 12.7896C29.662 6.51747 17.5542 10.5049 13.968 21.083C12.5711 25.2009 12.9398 29.3112 14.8182 33.256C15.0238 33.6874 15.1993 34.3018 15.889 33.8178C18.0583 32.298 20.4959 32.5965 22.8959 32.8322C25.1329 33.0504 27.2445 31.8491 28.0946 29.7726C28.6113 28.5112 28.2677 27.2121 28.3354 25.9357L28.3304 25.9382ZM47.1743 31.9269C44.1273 39.4755 38.7881 44.0949 30.7153 44.5664C21.4464 45.1081 15.2846 40.3632 11.721 31.9018C10.916 33.251 10.0834 34.4899 8.86956 35.3125C7.83132 36.0172 8.00436 36.6291 8.50592 37.5444C13.5066 46.7031 23.8213 51.5632 34.1536 49.4792C41.5642 47.9846 46.9987 43.7538 50.595 37.1357C50.7856 36.7846 51.3197 36.3256 50.7805 35.9244C49.336 34.846 48.205 33.4893 47.1743 31.9244V31.9269ZM47.1918 20.2855C48.0721 18.9889 48.9047 17.7099 50.141 16.8748C51.0965 16.2328 50.9686 15.6911 50.4997 14.8385C45.2457 5.28862 34.7078 0.438467 24.0671 2.90869C16.9598 4.55885 11.7285 8.79458 8.28022 15.2197C8.08461 15.5833 7.6658 15.9971 8.25012 16.4109C9.6821 17.4241 10.7655 18.7683 11.7185 20.3557C15.0589 12.3632 20.7417 7.69113 29.3661 7.64599C38.0909 7.60085 43.8439 12.2805 47.1918 20.288V20.2855ZM56.6614 19.9469C56.6614 19.1921 56.6614 18.7758 56.6614 18.357C56.6639 16.3733 56.4984 16.2579 54.5799 16.9125C50.8031 18.199 48.3053 21.8504 48.1448 25.893C47.9743 30.2015 50.7229 33.9783 54.7329 35.3676C56.4407 35.9595 56.7793 35.9143 56.6664 34.0209C56.6489 33.73 56.6238 33.4291 56.6715 33.1457C57.0251 30.9313 56.2501 29.2711 54.5097 27.8266C52.8194 26.4247 52.8921 25.9432 54.5122 24.4159C55.9116 23.0943 57.316 21.8303 56.6589 19.9494L56.6614 19.9469ZM2.23633 32.7695C2.23633 33.2711 2.23633 33.7726 2.23633 34.2742C2.24134 35.952 2.30906 36.0021 3.93413 35.5206C7.80624 34.377 10.6928 30.8034 10.8834 26.9187C11.104 22.4172 8.74417 18.5877 4.74166 16.9551C2.36423 15.9846 2.23884 16.0698 2.23884 18.6404C2.23884 18.7231 2.25138 18.8084 2.23884 18.8911C1.86015 21.2686 2.59495 23.1118 4.53602 24.6466C6.04323 25.8378 5.94793 26.3269 4.54354 27.656C3.06642 29.0554 1.47645 30.372 2.23382 32.767L2.23633 32.7695Z" fill="#2B2427"/>
<path id="Vector_2" d="M37.3578 19.3976C39.2763 19.6133 41.1747 19.4553 42.9553 18.5976C43.5822 18.2942 43.8305 18.54 44.1039 19.0716C47.0481 24.787 45.7716 32.5738 41.2976 37.2058C37.902 40.7218 33.8267 42.4597 29.0067 42.3594C24.455 42.2641 20.628 40.3832 17.4606 37.1506C16.5954 36.2679 16.7133 35.8064 17.8493 35.3349C19.1308 34.8033 20.4725 34.8685 21.7967 35.0716C26.9101 35.8516 30.6493 32.639 30.6694 27.4854C30.6744 26.1964 30.3509 24.9299 30.5791 23.6233C31.0481 20.955 32.7534 19.4327 35.4543 19.4001C36.0813 19.3926 36.7083 19.4001 37.3603 19.4001L37.3578 19.3976Z" fill="#FF2D61"/>
<path id="Vector_3" d="M28.3296 25.9383C28.2619 27.2173 28.6055 28.5139 28.0889 29.7753C27.2412 31.8493 25.1271 33.0531 22.8901 32.8349C20.4901 32.5991 18.0525 32.3032 15.8832 33.8205C15.1936 34.3045 15.018 33.6901 14.8124 33.2587C12.9365 29.3139 12.5679 25.2035 13.9622 21.0857C17.5509 10.5076 29.6563 6.52265 38.8676 12.7922C39.9133 13.5045 40.7384 14.4399 41.571 15.3703C42.2256 16.1026 41.9296 16.5339 41.1397 16.8625C40.2995 17.2111 39.4243 17.1734 38.5491 17.1709C37.6738 17.1684 36.7911 17.2035 35.9209 17.1158C31.813 16.6919 27.823 20.2129 28.3196 24.6894C28.3647 25.1007 28.3246 25.5245 28.3246 25.9408L28.3296 25.9383Z" fill="#FF2D61"/>
<path id="Vector_4" d="M47.1773 31.927C48.2106 33.4919 49.3391 34.8486 50.7836 35.927C51.3203 36.3282 50.7886 36.7872 50.598 37.1383C47.0018 43.7565 41.5648 47.9847 34.1567 49.4819C23.8219 51.5684 13.5096 46.7082 8.50899 37.5471C8.00743 36.6317 7.83439 36.0198 8.87263 35.3151C10.0864 34.4925 10.9215 33.2511 11.724 31.9044C15.2877 40.3684 21.4494 45.1107 30.7184 44.569C38.7911 44.0975 44.1328 39.4781 47.1773 31.9295V31.927Z" fill="#FEFEFE"/>
<path id="Vector_5" d="M47.1922 20.2879C43.8443 12.2804 38.0913 7.60078 29.3665 7.64592C20.7396 7.69106 15.0593 12.3632 11.7189 20.3556C10.7634 18.7682 9.67999 17.4265 8.25053 16.4108C7.66871 15.997 8.08501 15.5832 8.28062 15.2196C11.7289 8.79451 16.9602 4.55877 24.0675 2.90862C34.7082 0.438396 45.2487 5.28855 50.5026 14.8409C50.9715 15.6961 51.0994 16.2353 50.144 16.8773C48.9051 17.7124 48.0725 18.9914 47.1947 20.2879H47.1922Z" fill="#FEFEFE"/>
<path id="Vector_6" d="M56.662 19.9495C57.3165 21.8304 55.9121 23.0943 54.5153 24.416C52.8952 25.9432 52.8225 26.4248 54.5127 27.8266C56.2532 29.2711 57.0281 30.9313 56.6745 33.1458C56.6294 33.4317 56.6544 33.7301 56.6695 34.021C56.7798 35.9144 56.4438 35.9596 54.7359 35.3677C50.7259 33.9784 47.9748 30.2016 48.1479 25.8931C48.3084 21.8505 50.8062 18.199 54.583 16.9125C56.5015 16.258 56.667 16.3733 56.6645 18.357C56.6645 18.7758 56.6645 19.1921 56.6645 19.947L56.662 19.9495Z" fill="#FF2D61"/>
<path id="Vector_7" d="M2.2361 32.7696C1.47873 30.3746 3.06619 29.058 4.54581 27.6586C5.9502 26.3295 6.04299 25.8404 4.53829 24.6492C2.59722 23.1144 1.85992 21.2686 2.24111 18.8937C2.25365 18.8135 2.24111 18.7257 2.24111 18.6429C2.24111 16.0699 2.3665 15.9871 4.74393 16.9577C8.74644 18.5903 11.1038 22.4197 10.8856 26.9213C10.695 30.806 7.80851 34.3796 3.93641 35.5232C2.31133 36.0022 2.24111 35.952 2.2386 34.2768C2.2386 33.7752 2.2386 33.2737 2.2386 32.7721L2.2361 32.7696Z" fill="#FF2D61"/>
</g>
</svg>
